<?xml version="1.0" encoding="UTF-8" standalone="no"?>
<!-- Created with Inkscape (http://www.inkscape.org/) -->

<svg
   xmlns:dc="http://purl.org/dc/elements/1.1/"
   xmlns:cc="http://creativecommons.org/ns#"
   xmlns:rdf="http://www.w3.org/1999/02/22-rdf-syntax-ns#"
   xmlns:svg="http://www.w3.org/2000/svg"
   xmlns="http://www.w3.org/2000/svg"
   xmlns:sodipodi="http://sodipodi.sourceforge.net/DTD/sodipodi-0.dtd"
   xmlns:inkscape="http://www.inkscape.org/namespaces/inkscape"
   id="svg8"
   version="1.1"
   viewBox="0 0 158.75 158.75"
   height="600"
   width="600"
   inkscape:version="0.92.2 (5c3e80d, 2017-08-06)"
   sodipodi:docname="favicon.svg">
  <sodipodi:namedview
     inkscape:window-maximized="1"
     inkscape:window-y="0"
     inkscape:window-x="0"
     inkscape:window-height="1021"
     inkscape:window-width="1920"
     units="px"
     showgrid="false"
     inkscape:current-layer="layer2"
     inkscape:document-units="mm"
     inkscape:cy="353.72987"
     inkscape:cx="375.81457"
     inkscape:zoom="1.4"
     inkscape:pageshadow="2"
     inkscape:pageopacity="0.0"
     borderopacity="1.0"
     bordercolor="#666666"
     pagecolor="#ffffff"
     id="base" />
  <defs
     id="defs2" />
  <metadata
     id="metadata5">
    <rdf:RDF>
      <cc:Work
         rdf:about="">
        <dc:format>image/svg+xml</dc:format>
        <dc:type
           rdf:resource="http://purl.org/dc/dcmitype/StillImage" />
        <dc:title></dc:title>
      </cc:Work>
    </rdf:RDF>
  </metadata>
  <g
     inkscape:groupmode="layer"
     id="layer2"
     inkscape:label="background">
    <circle
       id="path3700"
       cx="79.375"
       cy="79.375"
       style="stroke-width:0.28418511;fill:#ffb380"
       r="79.375" />
    <g
       id="Multicolor"
       transform="matrix(-1.85797,0,0,1.85797,181.64339,-22.542234)"
       style="fill:#720024;fill-opacity:1;stroke:none;stroke-opacity:1">
      <g
         id="g3864"
         style="fill:#720024;fill-opacity:1;stroke:none;stroke-opacity:1">
        <g
           id="g3808"
           style="fill:#720024;fill-opacity:1;stroke:none;stroke-opacity:1">
          <path
             id="path3806"
             style="fill:#720024;fill-opacity:1;stroke:none;stroke-opacity:1"
             d="m 34.08,74.21 -1.46,1.37 6.494,6.495 c 0.396,-0.564 0.744,-1.166 1.037,-1.793"
             inkscape:connector-curvature="0" />
        </g>
        <g
           id="g3814"
           style="fill:#720024;fill-opacity:1;stroke:none;stroke-opacity:1">
          <g
             id="g3812"
             style="fill:#720024;fill-opacity:1;stroke:none;stroke-opacity:1">
            <path
               id="path3810"
               style="fill:#720024;fill-opacity:1;stroke:none;stroke-opacity:1"
               d="M 40.832,73.892 37.74,70.8 l -1.47,1.36 4.735,4.734 c 0.005,-0.112 0.025,-0.221 0.025,-0.334 0,-0.83 -0.084,-1.732 -0.198,-2.668 z"
               inkscape:connector-curvature="0" />
          </g>
        </g>
        <g
           id="g3820"
           style="fill:#720024;fill-opacity:1;stroke:none;stroke-opacity:1">
          <g
             id="g3818"
             style="fill:#720024;fill-opacity:1;stroke:none;stroke-opacity:1">
            <path
               id="path3816"
               style="fill:#720024;fill-opacity:1;stroke:none;stroke-opacity:1"
               d="M 50.745,67.056 46.39,62.7 l -1.46,1.37 2.979,2.979 c 0.942,0.051 1.889,0.055 2.836,0.007 z"
               inkscape:connector-curvature="0" />
          </g>
        </g>
        <g
           id="g3824"
           style="fill:#720024;fill-opacity:1;stroke:none;stroke-opacity:1">
          <path
             id="path3822"
             style="fill:#720024;fill-opacity:1;stroke:none;stroke-opacity:1"
             d="m 50.04,59.28 -1.46,1.37 5.872,5.872 c 0.722,-0.178 1.442,-0.393 2.156,-0.674"
             inkscape:connector-curvature="0" />
        </g>
        <g
           id="g3828"
           style="fill:#720024;fill-opacity:1;stroke:none;stroke-opacity:1">
          <path
             id="path3826"
             style="fill:#720024;fill-opacity:1;stroke:none;stroke-opacity:1"
             d="m 53.69,55.86 -1.46,1.37 7.185,7.185 c 0.555,-0.349 1.104,-0.745 1.649,-1.181"
             inkscape:connector-curvature="0" />
        </g>
        <g
           id="g3838"
           style="fill:#720024;fill-opacity:1;stroke:none;stroke-opacity:1">
          <g
             id="g3832"
             style="fill:#720024;fill-opacity:1;stroke:none;stroke-opacity:1">
            <path
               style="fill:#720024;fill-opacity:1;stroke:none;stroke-opacity:1"
               d="m 57.34,52.439999 -1.450001,1.370002"
               id="line3830" />
          </g>
          <g
             id="g3836"
             style="fill:#720024;fill-opacity:1;stroke:none;stroke-opacity:1">
            <path
               id="path3834"
               style="fill:#720024;fill-opacity:1;stroke:none;stroke-opacity:1"
               d="m 64.562,59.662 -7.222,-7.222 -1.45,1.37 7.375,7.375 c 0.472,-0.506 0.908,-1.013 1.297,-1.523 z"
               inkscape:connector-curvature="0" />
          </g>
        </g>
        <g
           id="g3842"
           style="fill:#720024;fill-opacity:1;stroke:none;stroke-opacity:1">
          <path
             id="path3840"
             style="fill:#720024;fill-opacity:1;stroke:none;stroke-opacity:1"
             d="m 61,49.02 -1.47,1.37 6.684,6.684 c 0.34,-0.66 0.617,-1.323 0.853,-1.987 z"
             inkscape:connector-curvature="0" />
        </g>
        <g
           id="g3846"
           style="fill:#720024;fill-opacity:1;stroke:none;stroke-opacity:1">
          <path
             id="path3844"
             style="fill:#720024;fill-opacity:1;stroke:none;stroke-opacity:1"
             d="m 63.19,46.97 4.860832,5.040644 c 0.119,-0.876 0.737419,-1.447318 0.746419,-2.325318 L 64.65,45.61"
             inkscape:connector-curvature="0"
             sodipodi:nodetypes="cccc" />
        </g>
        <g
           id="g3850"
           style="fill:#720024;fill-opacity:1;stroke:none;stroke-opacity:1">
          <path
             style="fill:#720024;fill-opacity:1;stroke:none;stroke-opacity:1"
             d="m 64.650002,45.610001 -1.460003,1.36"
             id="line3848" />
        </g>
        <g
           id="g3854"
           style="fill:#720024;fill-opacity:1;stroke:none;stroke-opacity:1">
          <path
             id="path3852"
             style="fill:#720024;fill-opacity:1;stroke:none;stroke-opacity:1"
             d="m 73.86,36.99 -1.46,1.37 2.632,2.632 c 0.517,0.042 1.018,0.068 1.498,0.068 0.434,0 0.861,-0.045 1.283,-0.117"
             inkscape:connector-curvature="0" />
        </g>
        <g
           id="g3858"
           style="fill:#720024;fill-opacity:1;stroke:none;stroke-opacity:1">
          <path
             id="path3856"
             style="fill:#720024;fill-opacity:1;stroke:none;stroke-opacity:1"
             d="m 76.05,34.94 4.859,4.859 c 0.59,-0.331 1.155,-0.715 1.699,-1.131 L 77.51,33.57 76.05,34.94"
             inkscape:connector-curvature="0" />
        </g>
        <g
           id="g3862"
           style="fill:#720024;fill-opacity:1;stroke:none;stroke-opacity:1">
          <path
             id="path3860"
             style="fill:#720024;fill-opacity:1;stroke:none;stroke-opacity:1"
             d="m 84.86,36.66 c -2.22,2.29 -5.12,4.4 -8.33,4.4 -1.841,0 -3.968,-0.351 -6.281,-0.742 -0.226,-1.586 -0.429,-3.133 -0.522,-4.632 l 7.809735,7.836164 1.46,-1.37 L 69.715,32.845 c 0.081,-1.228 0.288,-2.414 0.689,-3.551 l 10.782735,10.808164 1.46,-1.37 L 71.312,27.371 c 0.466,-0.782 1.042,-1.538 1.769,-2.261 L 70.93,23 C 65.802,28.127 66.256,33.867 67.121,39.81 60.34,38.8 52.449,38.521 45.47,45.5 38.907,52.063 38.767,59.43 39.613,65.928 37.563,65.59 35.608,65.31 33.8,65.31 c -4.37,0 -8.12,2.79 -10.82,5.66 l 2.13,2.11 c 0.785,-0.841 1.668,-1.664 2.62,-2.39 l 11.654215,11.705074 1.46,-1.37 L 29.439,69.569 C 30.418,69.022 31.45,68.604 32.53,68.42 L 43.034215,78.975074 44.029,76.561 35.32,68.381 c 1.462,0.121 3.062,0.385 4.764,0.673 0.463,2.788 0.945,5.342 0.945,7.507 0,3.32 -2.06,6.12 -4.23,8.13 l 2.14,2.12 c 2.59,-2.45 5.09,-5.92 5.09,-10.25 0,-2.158 -0.394,-4.52 -0.81,-6.997 6.778,1.011 14.659,1.289 21.641,-5.693 6.81,-6.81 6.666,-13.87 5.821,-20.435 2.064,0.341 4.031,0.625 5.849,0.625 4.2,0 7.81,-2.56 10.47,-5.31 z M 62.74,61.75 c -6.31,6.31 -13.487,5.744 -20.021,4.695 -0.241,-1.654 -0.423,-3.343 -0.456,-5.042 l 7.54426,7.534726 1.46,-1.37 L 42.362,58.673 c 0.113,-1.191 0.33,-2.38 0.68,-3.561 l 12.391955,12.421748 1.46,-1.37 L 43.805,53.044 c 0.407,-0.913 0.915,-1.817 1.53,-2.71 l 14.340253,14.268328 1.46,-1.37 L 46.561,48.73 c 0.321,-0.373 0.664,-0.743 1.03,-1.11 0.363,-0.362 0.729,-0.695 1.096,-1.014 l 14.648253,14.576328 1.45,-1.37 L 50.28,45.379 c 0.892,-0.617 1.797,-1.12 2.71,-1.53 l 13.968271,13.896346 1.468,-1.371 L 55.05,43.07 c 1.179,-0.353 2.367,-0.568 3.556,-0.684 l 9.294097,9.330059 1.46,-1.430925 L 61.32,42.28 c 2.119,0.036 4.221,0.313 6.26,0.639 0.895,6.288 1.261,12.72 -4.84,18.831 z"
             inkscape:connector-curvature="0"
             sodipodi:nodetypes="csccccccccccccscscccccccccccsccscscsccccccccccccccccccccccccccccccc" />
        </g>
      </g>
    </g>
  </g>
  <g
     inkscape:label="Layer 1"
     inkscape:groupmode="layer"
     id="layer1"
     transform="translate(0,-138.24998)" />
</svg>
