<svg xmlns="http://www.w3.org/2000/svg" viewBox="0 0 158.75 158.75" height="600" width="600"><circle cx="79.375" cy="79.375" r="79.375" fill="#ffb380"/><g fill="#720024"><path d="M118.324 115.338l2.712 2.545-12.065 12.068a22.055 22.055 0 0 1-1.927-3.332M105.779 114.747l5.745-5.745 2.73 2.527-8.797 8.796c-.009-.209-.046-.411-.046-.621 0-1.542.156-3.218.368-4.957zM87.36 102.046l8.092-8.094 2.713 2.546-5.535 5.535c-1.75.095-3.51.102-5.27.013zM88.67 87.598l2.713 2.546-10.91 10.91c-1.341-.331-2.679-.73-4.006-1.253M81.889 81.244l2.713 2.545-13.35 13.35a33.3 33.3 0 0 1-3.064-2.194M75.107 74.89l2.694 2.545M61.69 88.308L75.106 74.89l2.694 2.545L64.1 91.138a37.684 37.684 0 0 1-2.41-2.83zM68.307 68.535l2.731 2.546L58.62 83.5a29.838 29.838 0 0 1-1.585-3.692zM64.238 64.727l-9.031 9.365c-.221-1.628-1.37-2.69-1.387-4.32l7.706-7.572M61.526 62.2l2.712 2.527M44.414 46.184l2.712 2.545-4.89 4.89c-.96.079-1.891.127-2.783.127-.806 0-1.6-.084-2.384-.217M40.345 42.375l-9.028 9.028a26.839 26.839 0 0 1-3.157-2.101l9.472-9.472 2.713 2.545"/><g><path d="M23.976 45.57c4.125 4.256 9.513 8.176 15.477 8.176 3.42 0 7.372-.652 11.67-1.379.42-2.946.797-5.82.97-8.606l-14.51 14.56-2.713-2.546 17.245-17.292c-.15-2.282-.535-4.485-1.28-6.598L30.8 51.966l-2.713-2.545 21.06-21.109a21.164 21.164 0 0 0-3.287-4.2l3.997-3.92c9.527 9.525 8.684 20.19 7.077 31.232 12.598-1.877 27.26-2.395 40.226 10.571 12.194 12.194 12.454 25.882 10.883 37.955 3.808-.628 7.44-1.148 10.8-1.148 8.12 0 15.087 5.184 20.103 10.516l-3.957 3.92c-1.459-1.562-3.1-3.091-4.868-4.44l-21.653 21.747-2.713-2.545 21.19-21.285c-1.818-1.016-3.736-1.793-5.742-2.135l-19.517 19.611-1.848-4.485 16.18-15.198c-2.715.224-5.688.715-8.85 1.25-.86 5.18-1.756 9.925-1.756 13.948 0 6.168 3.827 11.37 7.859 15.105l-3.976 3.939c-4.812-4.552-9.457-11-9.457-19.044 0-4.01.732-8.398 1.505-13-12.594 1.878-27.236 2.395-40.209-10.578C48.483 83.475 48.75 70.358 50.32 58.161c-3.835.633-7.49 1.16-10.867 1.16-7.804 0-14.51-4.756-19.453-9.865zm41.098 46.617c11.724 11.724 25.059 10.673 37.199 8.724.448-3.073.786-6.212.847-9.368l-14.017 13.999-2.713-2.545 16.546-16.527a34.766 34.766 0 0 0-1.263-6.616l-23.024 23.08-2.713-2.546 24.319-24.376a31.464 31.464 0 0 0-2.843-5.035L70.77 97.487l-2.713-2.545 27.078-26.945a38.318 38.318 0 0 0-1.913-2.063 40.283 40.283 0 0 0-2.037-1.884L63.968 91.133l-2.694-2.546 26.95-26.816a31.527 31.527 0 0 0-5.034-2.843L57.237 84.747 54.509 82.2l24.853-24.72c-2.19-.655-4.398-1.055-6.607-1.27L55.487 73.545l-2.713-2.659 14.939-14.873c-3.937.067-7.843.581-11.631 1.187-1.663 11.683-2.343 23.633 8.992 34.987z"/></g></g></svg>